<?xml version="1.0" encoding="UTF-8"?>
<svg version="1.1" xmlns="http://www.w3.org/2000/svg" width="611" height="172">
<path d="M0 0 C201.63 0 403.26 0 611 0 C611 56.76 611 113.52 611 172 C409.37 172 207.74 172 0 172 C0 115.24 0 58.48 0 0 Z " fill="#E3F5F2" transform="translate(0,0)"/>
<path d="M0 0 C3.44178233 0.58762137 4.55049381 1.60578758 6.5625 4.4375 C7.1875 7.375 7.1875 7.375 6.5625 10.4375 C5.593125 11.241875 4.62375 12.04625 3.625 12.875 C2.614375 13.720625 1.60375 14.56625 0.5625 15.4375 C0.52125 16.55125 0.48 17.665 0.4375 18.8125 C-0.4375 22.4375 -0.4375 22.4375 -3.01171875 24.44140625 C-11.37891414 29.4375 -11.37891414 29.4375 -16.4375 29.4375 C-16.1075 29.97375 -15.7775 30.51 -15.4375 31.0625 C-14.1608812 34.09446965 -14.02133481 36.17753936 -14.4375 39.4375 C-16.68922903 42.03564888 -18.08767705 42.39466454 -21.5 42.8125 C-24.4375 42.4375 -24.4375 42.4375 -26.25 41.25 C-27.4375 39.4375 -27.4375 39.4375 -27.8125 36.875 C-28.01875 36.070625 -28.225 35.26625 -28.4375 34.4375 C-30.08430823 33.72318572 -31.75645356 33.06702768 -33.4375 32.4375 C-35.518784 31.30468304 -37.5808631 30.13604983 -39.625 28.9375 C-41.19314453 28.02484375 -41.19314453 28.02484375 -42.79296875 27.09375 C-45.4375 25.4375 -45.4375 25.4375 -47.4375 23.4375 C-47.73828125 20.50390625 -47.73828125 20.50390625 -47.75 17 C-47.76675781 15.84628906 -47.78351563 14.69257812 -47.80078125 13.50390625 C-47.4375 10.4375 -47.4375 10.4375 -45.91796875 8.52734375 C-45.42941406 8.16769531 -44.94085938 7.80804688 -44.4375 7.4375 C-43.1175 8.0975 -41.7975 8.7575 -40.4375 9.4375 C-40.4375 10.4275 -40.4375 11.4175 -40.4375 12.4375 C-39.24627978 12.52018982 -39.24627978 12.52018982 -37.6875 11.4375 C-35.10251674 10.28861855 -33.2356082 10.28204954 -30.4375 10.4375 C-30.1075 12.0875 -29.7775 13.7375 -29.4375 15.4375 C-23.32854076 15.93939139 -20.09786966 14.5996255 -15.125 11.4375 C-8.63175676 7.4375 -8.63175676 7.4375 -6.4375 7.4375 C-6.334375 6.839375 -6.23125 6.24125 -6.125 5.625 C-5.01090404 2.08014921 -3.69345824 0.6629284 0 0 Z " fill="#DAECE9" transform="translate(192.4375,76.5625)"/>
<path d="M0 0 C3.39554235 -0.11660824 6.79056679 -0.18738372 10.1875 -0.25 C11.14720703 -0.28351563 12.10691406 -0.31703125 13.09570312 -0.3515625 C17.52895066 -0.41292233 20.24717832 -0.42752836 24.1640625 1.796875 C26 4 26 4 26.1875 7.5 C24.71362085 11.84406485 22.97480741 12.88574074 19 15 C19.99 15.61875 20.98 16.2375 22 16.875 C24.30459546 18.74139773 24.93528263 19.58441295 25.3984375 22.55859375 C25.37712652 25.06263384 25.26107778 27.51009157 25 30 C26.32 30.33 27.64 30.66 29 31 C21.64963982 31.48199083 21.64963982 31.48199083 19.0625 29.5625 C17.50342479 25.80237744 17.25020358 22.03776816 17 18 C14.69 17.01 12.38 16.02 10 15 C10 19.95 10 24.9 10 30 C11.32 30.33 12.64 30.66 14 31 C9.38 31 4.76 31 0 31 C1.32 30.67 2.64 30.34 4 30 C4 20.43 4 10.86 4 1 C2.68 0.67 1.36 0.34 0 0 Z " fill="#212222" transform="translate(542,65)"/>
<path d="M0 0 C3.39554235 -0.11660824 6.79056679 -0.18738372 10.1875 -0.25 C11.14720703 -0.28351563 12.10691406 -0.31703125 13.09570312 -0.3515625 C20.24258698 -0.45048131 20.24258698 -0.45048131 24.1328125 1.86328125 C26 4 26 4 26.6875 6.4375 C25.64879415 10.30903997 23.17293477 11.71548697 20 14 C19.01 14.495 19.01 14.495 18 15 C18.78375 15.433125 19.5675 15.86625 20.375 16.3125 C23 18 23 18 25 21 C25.1953125 23.26171875 25.1953125 23.26171875 25.125 25.6875 C25.10695313 26.49574219 25.08890625 27.30398437 25.0703125 28.13671875 C25.04710937 28.75160156 25.02390625 29.36648437 25 30 C26.32 30.33 27.64 30.66 29 31 C21.64963982 31.48199083 21.64963982 31.48199083 19.0625 29.5625 C17.50342479 25.80237744 17.25020358 22.03776816 17 18 C14.69 17.01 12.38 16.02 10 15 C10 19.95 10 24.9 10 30 C10.99 30.33 11.98 30.66 13 31 C8.71 31 4.42 31 0 31 C1.32 30.67 2.64 30.34 4 30 C4 20.43 4 10.86 4 1 C2.68 0.67 1.36 0.34 0 0 Z " fill="#1F2120" transform="translate(417,65)"/>
<path d="M0 0 C3.63 0 7.26 0 11 0 C13.72399099 5.83712355 15.41039668 11.76559832 17 18 C19.24164241 14.63753639 20.01126918 11.7681514 21.0625 7.875 C22.89761571 1.10238429 22.89761571 1.10238429 24 0 C25.85287502 -0.07226502 27.70833878 -0.0838122 29.5625 -0.0625 C30.57441406 -0.05347656 31.58632813 -0.04445313 32.62890625 -0.03515625 C33.41136719 -0.02355469 34.19382812 -0.01195313 35 0 C33.68 0.33 32.36 0.66 31 1 C31 10.57 31 20.14 31 30 C32.32 30.33 33.64 30.66 35 31 C30.38 31 25.76 31 21 31 C22.32 30.67 23.64 30.34 25 30 C24.505 18.12 24.505 18.12 24 6 C23.236875 8.454375 22.47375 10.90875 21.6875 13.4375 C19.85559565 19.31426347 17.97789963 25.17040109 16 31 C15.34 31 14.68 31 14 31 C7 10.48091603 7 10.48091603 7 4 C6.34 4 5.68 4 5 4 C5 12.58 5 21.16 5 30 C6.65 30 8.3 30 10 30 C10 30.33 10 30.66 10 31 C7.36 31 4.72 31 2 31 C2.33 30.34 2.66 29.68 3 29 C3.15441209 26.89625004 3.24992639 24.78804881 3.31640625 22.6796875 C3.35830078 21.42285156 3.40019531 20.16601562 3.44335938 18.87109375 C3.48267578 17.55238281 3.52199219 16.23367187 3.5625 14.875 C3.60569512 13.53514249 3.64930973 12.19529844 3.69335938 10.85546875 C3.79970981 7.57042185 3.90173808 4.28529719 4 1 C2.68 0.67 1.36 0.34 0 0 Z " fill="#202121" transform="translate(336,65)"/>
<path d="M0 0 C3.97915159 -0.02886984 7.95827653 -0.04675406 11.9375 -0.0625 C13.07380859 -0.07087891 14.21011719 -0.07925781 15.38085938 -0.08789062 C16.46044922 -0.09111328 17.54003906 -0.09433594 18.65234375 -0.09765625 C20.15269165 -0.10551147 20.15269165 -0.10551147 21.68334961 -0.11352539 C24 0 24 0 25 1 C25.14115161 3.67058851 25.04247107 6.32432238 25 9 C24.34 9 23.68 9 23 9 C22.78601563 8.20207031 22.57203125 7.40414062 22.3515625 6.58203125 C21.24418405 3.75510016 21.24418405 3.75510016 18.3984375 3.07421875 C17.40070312 2.94660156 16.40296875 2.81898437 15.375 2.6875 C13.60125 2.460625 11.8275 2.23375 10 2 C10 6.62 10 11.24 10 16 C11.65 15.67 13.3 15.34 15 15 C15.33 13.35 15.66 11.7 16 10 C16.66 10 17.32 10 18 10 C18 14.29 18 18.58 18 23 C16.68 21.35 15.36 19.7 14 18 C12.68 17.67 11.36 17.34 10 17 C10 21.62 10 26.24 10 31 C16.52339178 30.40373826 16.52339178 30.40373826 21.76171875 27.109375 C23.13790404 24.93222587 23.13790404 24.93222587 24 22 C24.66 22 25.32 22 26 22 C26 25.3 26 28.6 26 32 C17.42 32 8.84 32 0 32 C1.32 31.67 2.64 31.34 4 31 C4 21.43 4 11.86 4 2 C2.68 2 1.36 2 0 2 C0 1.34 0 0.68 0 0 Z " fill="#121312" transform="translate(508,64)"/>
<path d="M0 0 C4.11283288 1.33095842 7.58331105 2.99694999 10.8125 5.91015625 C11.8125 9.22265625 11.8125 9.22265625 11.8125 11.91015625 C9.8325 12.24015625 7.8525 12.57015625 5.8125 12.91015625 C5.68875 12.27078125 5.565 11.63140625 5.4375 10.97265625 C5.23125 10.29203125 5.025 9.61140625 4.8125 8.91015625 C1.95474427 7.48127838 -0.00358075 7.63854229 -3.1875 7.91015625 C-6.60935867 9.40346211 -6.60935867 9.40346211 -9.9375 11.41015625 C-16.02083333 14.91015625 -16.02083333 14.91015625 -18.1875 14.91015625 C-18.31125 15.85890625 -18.435 16.80765625 -18.5625 17.78515625 C-19.1875 20.91015625 -19.1875 20.91015625 -21.1875 22.91015625 C-24.43640907 23.26329854 -26.56646648 23.18798703 -29.5625 21.84765625 C-31.1875 19.91015625 -31.1875 19.91015625 -31.6875 16.41015625 C-31.1875 12.91015625 -31.1875 12.91015625 -29.75 11.03515625 C-27.1875 9.91015625 -27.1875 9.91015625 -23.375 9.78515625 C-17.55393177 9.39837431 -13.27488967 6.19522366 -8.5925293 2.97216797 C-5.55534511 0.9639074 -3.68807907 -0.10395321 0 0 Z " fill="#1E201F" transform="translate(145.1875,60.08984375)"/>
<path d="M0 0 C3 2 3 2 3.45556641 3.96826172 C3.82037564 6.11634449 3.82037564 6.11634449 5.62646484 7.34033203 C6.31434082 7.72560059 7.0022168 8.11086914 7.7109375 8.5078125 C8.46117187 8.93707031 9.21140625 9.36632813 9.984375 9.80859375 C10.77328125 10.24300781 11.5621875 10.67742188 12.375 11.125 C13.9247316 12.00215832 15.47422033 12.87974592 17.0234375 13.7578125 C18.05863525 14.33233154 18.05863525 14.33233154 19.11474609 14.91845703 C20.78476336 15.87652185 22.39803936 16.93202624 24 18 C24.3984375 20.93359375 24.3984375 20.93359375 24.375 24.4375 C24.38660156 26.16806641 24.38660156 26.16806641 24.3984375 27.93359375 C24 31 24 31 22.4765625 32.91015625 C21.74566406 33.44962891 21.74566406 33.44962891 21 34 C19.35 33.34 17.7 32.68 16 32 C16.33 31.484375 16.66 30.96875 17 30.4375 C18.32010877 27.21973488 18.13242105 24.4429472 18 21 C17.27425781 20.73445313 16.54851562 20.46890625 15.80078125 20.1953125 C13.00176309 19.00075245 10.7122795 17.56362474 8.1875 15.875 C4.83453307 13.79935381 2.65048076 12.63481935 -1.3125 12.875 C-5 13 -5 13 -8 11.375 C-10 9 -10 9 -10.5625 5.9375 C-10 3 -10 3 -8.375 1.125 C-5.36153511 -0.30243074 -3.30063438 -0.35113132 0 0 Z " fill="#1D1E1E" transform="translate(144,41)"/>
<path d="M0 0 C2.9375 0.5 2.9375 0.5 4.8125 2.125 C6.25164524 5.16319551 6.36204541 7.17439432 5.9375 10.5 C5.44169434 10.95842285 4.94588867 11.4168457 4.43505859 11.88916016 C2.42848342 14.04752061 2.58184312 15.30091978 2.6015625 18.2109375 C2.58222656 19.58378906 2.58222656 19.58378906 2.5625 20.984375 C2.5625 22.90366173 2.57024903 24.82296489 2.5859375 26.7421875 C2.46671485 33.81606452 2.46671485 33.81606452 -0.4140625 37.5390625 C-4.69613815 40.70956689 -6.70801093 41.8417759 -12.0625 41.5 C-12.7225 41.17 -13.3825 40.84 -14.0625 40.5 C-13.7325 38.85 -13.4025 37.2 -13.0625 35.5 C-11.9178125 35.5928125 -11.9178125 35.5928125 -10.75 35.6875 C-8.08128172 35.74456358 -8.08128172 35.74456358 -6.41723633 34.2734375 C-4.69310398 32.01643672 -4.68875425 30.75669263 -4.69921875 27.9375 C-4.69986328 27.05835937 -4.70050781 26.17921875 -4.70117188 25.2734375 C-4.71728516 24.35820313 -4.73339844 23.44296875 -4.75 22.5 C-4.74677734 21.58476563 -4.74355469 20.66953125 -4.74023438 19.7265625 C-4.68192343 14.29775197 -4.68192343 14.29775197 -7.0625 9.5 C-7.56984682 6.20224568 -7.37307067 4.94196595 -5.4375 2.1875 C-3.0625 0.5 -3.0625 0.5 0 0 Z " fill="#1E1F1F" transform="translate(178.0625,43.5)"/>
<path d="M0 0 C3.44178233 0.58762137 4.55049381 1.60578758 6.5625 4.4375 C7.18043165 8.14508991 7.06447249 9.7310202 4.875 12.8125 C2.12479471 14.74507669 0.85492228 14.85960542 -2.4375 14.4375 C-3.4275 14.1075 -4.4175 13.7775 -5.4375 13.4375 C-7.22694021 14.12771414 -7.22694021 14.12771414 -9.01953125 15.30859375 C-9.70466797 15.71787109 -10.38980469 16.12714844 -11.09570312 16.54882812 C-12.52166095 17.42663897 -13.94616562 18.30681517 -15.36914062 19.18945312 C-19.51951578 21.66259529 -22.45747478 23.25574777 -27.4375 22.4375 C-31.55676703 20.4023443 -34.91008172 17.95382756 -36.4375 13.5625 C-36.4375 12.86125 -36.4375 12.16 -36.4375 11.4375 C-34.4575 11.1075 -32.4775 10.7775 -30.4375 10.4375 C-30.1075 12.0875 -29.7775 13.7375 -29.4375 15.4375 C-23.32854076 15.93939139 -20.09786966 14.5996255 -15.125 11.4375 C-8.63175676 7.4375 -8.63175676 7.4375 -6.4375 7.4375 C-6.334375 6.839375 -6.23125 6.24125 -6.125 5.625 C-5.01090404 2.08014921 -3.69345824 0.6629284 0 0 Z " fill="#1C1D1D" transform="translate(192.4375,76.5625)"/>
<path d="M0 0 C0.99 0 1.98 0 3 0 C4.3023599 3.30839237 5.58986413 6.62238308 6.875 9.9375 C7.23980469 10.86369141 7.60460937 11.78988281 7.98046875 12.74414062 C10.18566536 18.45760458 11.82827872 23.98721975 13 30 C14.65 30 16.3 30 18 30 C18 30.66 18 31.32 18 32 C13.05 32 8.1 32 3 32 C3 31.34 3 30.68 3 30 C4.32 30 5.64 30 7 30 C6.67 29.4225 6.34 28.845 6 28.25 C5 26 5 26 5 22 C0.05 22.495 0.05 22.495 -5 23 C-5.99 25.31 -6.98 27.62 -8 30 C-6.68 30 -5.36 30 -4 30 C-4 30.66 -4 31.32 -4 32 C-6.97 32 -9.94 32 -13 32 C-12.01 31.67 -11.02 31.34 -10 31 C-9.17684076 28.97874359 -9.17684076 28.97874359 -8.6875 26.4375 C-7.25188734 20.58757033 -5.24247447 15.08910108 -3.0690918 9.48413086 C-1.8602355 6.35253282 -0.69021676 3.29115554 0 0 Z " fill="#252727" transform="translate(49,65)"/>
<path d="M0 0 C-0.33 1.65 -0.66 3.3 -1 5 C-2.11375 5.28875 -3.2275 5.5775 -4.375 5.875 C-8.00291092 6.69241329 -8.00291092 6.69241329 -10 9 C-10.44626783 12.12546156 -10.32410302 15.2837984 -10.3125 18.4375 C-10.32861328 19.30955078 -10.34472656 20.18160156 -10.36132812 21.08007812 C-10.36197266 21.91861328 -10.36261719 22.75714844 -10.36328125 23.62109375 C-10.36626221 24.3886499 -10.36924316 25.15620605 -10.37231445 25.94702148 C-9.90661928 28.51491048 -8.86981585 29.25243784 -7 31 C-6.5 33.9375 -6.5 33.9375 -7 37 C-9.1875 39.4375 -9.1875 39.4375 -12 41 C-14.89481608 40.93107581 -16.40685358 40.38861317 -18.8125 38.8125 C-20.58260835 36.11075568 -20.39415803 34.15326426 -20 31 C-19.50419434 30.55003662 -19.00838867 30.10007324 -18.49755859 29.63647461 C-16.41477585 27.36048949 -16.64543452 25.86314539 -16.6640625 22.81640625 C-16.65117187 21.80642578 -16.63828125 20.79644531 -16.625 19.75585938 C-16.625 17.63084501 -16.63278404 15.50581608 -16.6484375 13.38085938 C-16.52906452 5.576851 -16.52906452 5.576851 -13.578125 2.359375 C-12.72734375 1.91078125 -11.8765625 1.4621875 -11 1 C-10.38125 0.566875 -9.7625 0.13375 -9.125 -0.3125 C-5.93790093 -1.34362029 -3.23495329 -0.6221064 0 0 Z " fill="#171818" transform="translate(149,75)"/>
<path d="M0 0 C7.59 0 15.18 0 23 0 C21.39014698 4.02463255 19.74655956 7.28322784 17.5234375 10.95703125 C16.853125 12.06884766 16.1828125 13.18066406 15.4921875 14.32617188 C14.78653878 15.4883301 14.0808086 16.65043887 13.375 17.8125 C12.66111835 18.99393526 11.94757321 20.17557392 11.234375 21.35742188 C9.49288205 24.24029871 7.74798618 27.12105724 6 30 C7.44109043 29.89563868 8.88103485 29.77537359 10.3203125 29.6484375 C11.12227051 29.58317871 11.92422852 29.51791992 12.75048828 29.45068359 C16.25658603 28.74824638 17.80996569 26.70533651 20 24 C20.99 23.01 21.98 22.02 23 21 C23 24.3 23 27.6 23 31 C15.08 31 7.16 31 -1 31 C-0.14750566 27.59002264 0.6310219 25.64104223 2.36328125 22.69921875 C2.83830078 21.88646484 3.31332031 21.07371094 3.80273438 20.23632812 C4.30095703 19.39521484 4.79917969 18.55410156 5.3125 17.6875 C6.28788988 16.02481553 7.26315236 14.3620563 8.23828125 12.69921875 C8.70572754 11.90563965 9.17317383 11.11206055 9.65478516 10.29443359 C11.46265797 7.21087848 13.2342717 4.10784958 15 1 C9.32779015 1.24471637 9.32779015 1.24471637 4.5625 3.9375 C2.96781864 5.91133248 2.96781864 5.91133248 2 8 C1.34 8 0.68 8 0 8 C0 5.36 0 2.72 0 0 Z " fill="#1A1B1B" transform="translate(477,65)"/>
<path d="M0 0 C3.3 0 6.6 0 10 0 C10 0.66 10 1.32 10 2 C8.68 2 7.36 2 6 2 C6.01047363 2.6705542 6.02094727 3.3411084 6.03173828 4.03198242 C6.07343171 7.08378316 6.09936853 10.13552384 6.125 13.1875 C6.14175781 14.24259766 6.15851563 15.29769531 6.17578125 16.38476562 C6.18222656 17.40634766 6.18867188 18.42792969 6.1953125 19.48046875 C6.20578613 20.41785889 6.21625977 21.35524902 6.22705078 22.32104492 C5.88560335 26.34975751 4.99825656 29.12274423 1.9375 31.8125 C-2.11784578 33.4518951 -5.68155776 33.58780974 -10 33 C-13.63467079 31.37599816 -14.77408696 30.33886956 -17 27 C-17.22705078 24.36450195 -17.22705078 24.36450195 -17.1953125 21.23828125 C-17.18886719 20.12001953 -17.18242187 19.00175781 -17.17578125 17.84960938 C-17.15902344 16.68236328 -17.14226562 15.51511719 -17.125 14.3125 C-17.11597656 13.13365234 -17.10695313 11.95480469 -17.09765625 10.74023438 C-17.07406423 7.82661974 -17.0411454 4.91341108 -17 2 C-18.32 1.67 -19.64 1.34 -21 1 C-16.05 1 -11.1 1 -6 1 C-6 1.33 -6 1.66 -6 2 C-7.65 2 -9.3 2 -11 2 C-10.89053657 6.29221231 -10.75981105 10.5835149 -10.625 14.875 C-10.5940625 16.09832031 -10.563125 17.32164063 -10.53125 18.58203125 C-10.49257813 19.74863281 -10.45390625 20.91523437 -10.4140625 22.1171875 C-10.3826416 23.19597168 -10.3512207 24.27475586 -10.31884766 25.38623047 C-10.25323678 28.15761654 -10.25323678 28.15761654 -8 30 C-5.8601368 30.318384 -5.8601368 30.318384 -3.5 30.25 C-2.7059375 30.25515625 -1.911875 30.2603125 -1.09375 30.265625 C1.21892751 30.18939909 1.21892751 30.18939909 3 28 C3.37207354 25.28384136 3.37207354 25.28384136 3.4140625 22.1171875 C3.45273437 20.95058594 3.49140625 19.78398438 3.53125 18.58203125 C3.5621875 17.35871094 3.593125 16.13539062 3.625 14.875 C3.66367187 13.64394531 3.70234375 12.41289063 3.7421875 11.14453125 C3.8366999 8.09650624 3.92225494 5.04849138 4 2 C2.68 2 1.36 2 0 2 C0 1.34 0 0.68 0 0 Z " fill="#1A1A1A" transform="translate(275,64)"/>
<path d="M0 0 C0 2.64 0 5.28 0 8 C-0.66 8 -1.32 8 -2 8 C-2.5775 7.030625 -3.155 6.06125 -3.75 5.0625 C-5.72150177 1.77221168 -5.72150177 1.77221168 -9.0625 0.9375 C-11.94983861 0.76205017 -11.94983861 0.76205017 -13.9375 2.125 C-15.39961597 4.70520464 -14.66684708 6.19464331 -14 9 C-12.64455078 9.36351563 -12.64455078 9.36351563 -11.26171875 9.734375 C-10.08222656 10.06953125 -8.90273437 10.4046875 -7.6875 10.75 C-6.51574219 11.07484375 -5.34398437 11.3996875 -4.13671875 11.734375 C-0.80398873 13.07908799 0.33958765 13.86560757 2 17 C2.83931263 23.5046729 2.83931263 23.5046729 0.98046875 26.81640625 C-1.16458711 29.50582673 -2.71475469 30.90491823 -6 32 C-9.90748662 32.14209042 -13.23361402 31.97647044 -17 31 C-17.99 31.495 -17.99 31.495 -19 32 C-19 28.7 -19 25.4 -19 22 C-14.125 26.75 -14.125 26.75 -13 29 C-9.7 29 -6.4 29 -3 29 C-3 26.03 -3 23.06 -3 20 C-6.02343493 18.67724722 -8.90718377 17.78993619 -12.125 17.125 C-14.69666912 16.48450882 -15.90774328 16.07495858 -18 14.375 C-19.48420056 10.85002366 -19.84767145 7.69760133 -19 4 C-14.07197859 -2.89922997 -7.69654452 -1.15333976 0 0 Z " fill="#262827" transform="translate(244,65)"/>
<path d="M0 0 C1.51400391 0.01740234 1.51400391 0.01740234 3.05859375 0.03515625 C4.07050781 0.04417969 5.08242188 0.05320312 6.125 0.0625 C7.29869141 0.07990234 7.29869141 0.07990234 8.49609375 0.09765625 C7.17609375 0.42765625 5.85609375 0.75765625 4.49609375 1.09765625 C4.49609375 10.66765625 4.49609375 20.23765625 4.49609375 30.09765625 C5.81609375 30.42765625 7.13609375 30.75765625 8.49609375 31.09765625 C3.87609375 31.09765625 -0.74390625 31.09765625 -5.50390625 31.09765625 C-4.51390625 30.76765625 -3.52390625 30.43765625 -2.50390625 30.09765625 C-2.83390625 22.83765625 -3.16390625 15.57765625 -3.50390625 8.09765625 C-4.49390625 11.56265625 -4.49390625 11.56265625 -5.50390625 15.09765625 C-5.83390625 15.09765625 -6.16390625 15.09765625 -6.50390625 15.09765625 C-4.96210005 0.19352964 -4.96210005 0.19352964 0 0 Z " fill="#191A1A" transform="translate(319.50390625,64.90234375)"/>
<path d="M0 0 C4.62 0 9.24 0 14 0 C14 0.66 14 1.32 14 2 C12.68 2 11.36 2 10 2 C10 11.57 10 21.14 10 31 C11.65 31 13.3 31 15 31 C15 31.66 15 32.32 15 33 C10.05 33 5.1 33 0 33 C0 32.34 0 31.68 0 31 C1.32 31 2.64 31 4 31 C4 21.43 4 11.86 4 2 C2.68 2 1.36 2 0 2 C0 1.34 0 0.68 0 0 Z " fill="#222323" transform="translate(74,64)"/>
<path d="M0 0 C3.63 0 7.26 0 11 0 C13 6 15 12 17 18 C17.99 17.01 18.98 16.02 20 15 C19.39891424 20.65020618 17.92471317 25.66164461 16 31 C15.01 30.67 14.02 30.34 13 30 C12.19140625 27.734375 12.19140625 27.734375 11.5625 24.75 C10.04640213 18.04046048 8.06787057 11.56014111 6 5 C5.67 13.25 5.34 21.5 5 30 C6.32 30.33 7.64 30.66 9 31 C5.04 31.495 5.04 31.495 1 32 C0.67 31.34 0.34 30.68 0 30 C1.32 30 2.64 30 4 30 C4 20.43 4 10.86 4 1 C2.68 0.67 1.36 0.34 0 0 Z " fill="#1D1E1E" transform="translate(293,65)"/>
<path d="M0 0 C1.32 0.66 2.64 1.32 4 2 C4 2.99 4 3.98 4 5 C3.67 5.33 3.34 5.66 3 6 C2.8442495 9.37974351 2.8442495 9.37974351 4 13 C6.12061826 15.12877733 8.55493894 16.45765907 11.1875 17.875 C11.84814453 18.26429687 12.50878906 18.65359375 13.18945312 19.0546875 C17.10463149 21.28088961 20.44774763 22.56105809 25 23 C24.01 23.66 23.02 24.32 22 25 C20.98131338 25.98095748 19.97648017 26.97702078 19 28 C14.15165137 26.57226543 10.07986419 24.53186974 5.75 22 C4.81414062 21.46632813 4.81414062 21.46632813 3.859375 20.921875 C1.30321356 19.44547141 -0.90361651 18.09638349 -3 16 C-3.30078125 13.06640625 -3.30078125 13.06640625 -3.3125 9.5625 C-3.32925781 8.40878906 -3.34601563 7.25507812 -3.36328125 6.06640625 C-3 3 -3 3 -1.48046875 1.08984375 C-0.99191406 0.73019531 -0.50335938 0.37054688 0 0 Z " fill="#1B1B1B" transform="translate(148,84)"/>
<path d="M0 0 C4.29 0 8.58 0 13 0 C13.33 0.66 13.66 1.32 14 2 C12.68 2 11.36 2 10 2 C10 11.57 10 21.14 10 31 C11.32 31.33 12.64 31.66 14 32 C9.38 32 4.76 32 0 32 C1.32 31.67 2.64 31.34 4 31 C4 21.43 4 11.86 4 2 C2.35 2 0.7 2 -1 2 C-0.67 1.34 -0.34 0.68 0 0 Z " fill="#1D1E1E" transform="translate(454,64)"/>
<path d="M0 0 C1.51400391 0.01740234 1.51400391 0.01740234 3.05859375 0.03515625 C4.07050781 0.04417969 5.08242188 0.05320312 6.125 0.0625 C7.29869141 0.07990234 7.29869141 0.07990234 8.49609375 0.09765625 C7.17609375 0.42765625 5.85609375 0.75765625 4.49609375 1.09765625 C4.49609375 10.66765625 4.49609375 20.23765625 4.49609375 30.09765625 C5.81609375 30.42765625 7.13609375 30.75765625 8.49609375 31.09765625 C3.87609375 31.09765625 -0.74390625 31.09765625 -5.50390625 31.09765625 C-4.18390625 30.76765625 -2.86390625 30.43765625 -1.50390625 30.09765625 C-1.64285582 26.01405809 -1.79125563 21.93085669 -1.94140625 17.84765625 C-1.98072266 16.68878906 -2.02003906 15.52992187 -2.06054688 14.3359375 C-2.10244141 13.22089844 -2.14433594 12.10585937 -2.1875 10.95703125 C-2.22415771 9.93061523 -2.26081543 8.90419922 -2.29858398 7.84667969 C-2.42081598 5.14816838 -2.42081598 5.14816838 -3.08618164 2.79394531 C-3.22403076 2.23416992 -3.36187988 1.67439453 -3.50390625 1.09765625 C-2.50390625 0.09765625 -2.50390625 0.09765625 0 0 Z " fill="#171717" transform="translate(362.50390625,64.90234375)"/>
<path d="M0 0 C3.3 0 6.6 0 10 0 C10 4.62 10 9.24 10 14 C11.98 14 13.96 14 16 14 C16 14.33 16 14.66 16 15 C14.02 15 12.04 15 10 15 C10 19.95 10 24.9 10 30 C11.32 30.33 12.64 30.66 14 31 C9.38 31 4.76 31 0 31 C1.32 30.67 2.64 30.34 4 30 C4 20.43 4 10.86 4 1 C2.68 0.67 1.36 0.34 0 0 Z " fill="#141414" transform="translate(542,65)"/>
<path d="M0 0 C3.3 0 6.6 0 10 0 C10 4.62 10 9.24 10 14 C11.65 14 13.3 14 15 14 C15 14.33 15 14.66 15 15 C13.35 15 11.7 15 10 15 C10 19.95 10 24.9 10 30 C10.99 30.33 11.98 30.66 13 31 C8.71 31 4.42 31 0 31 C1.32 30.67 2.64 30.34 4 30 C4 20.43 4 10.86 4 1 C2.68 0.67 1.36 0.34 0 0 Z " fill="#1A1B1B" transform="translate(417,65)"/>
<path d="M0 0 C0.99 0 1.98 0 3 0 C4.10697816 2.81142124 5.21063123 5.62407652 6.3125 8.4375 C6.62123047 9.22060547 6.92996094 10.00371094 7.24804688 10.81054688 C13 25.5234375 13 25.5234375 13 30 C14.32 30.33 15.64 30.66 17 31 C12.71 31 8.42 31 4 31 C4.99 30.67 5.98 30.34 7 30 C6.38511719 28.46279297 6.38511719 28.46279297 5.7578125 26.89453125 C2.5078125 18.76953125 2.5078125 18.76953125 1.72460938 16.8112793 C1.10066495 15.25162847 0.47616695 13.69219912 -0.1484375 12.1328125 C-2.09743512 7.25137809 -1.94575944 5.03608326 0 0 Z " fill="#1A1B1B" transform="translate(392,65)"/>
<path d="M0 0 C3.53677664 -0.32152515 5.3962104 -0.4131192 8.375 1.625 C10.47464453 4.69371124 10.62060815 6.35392711 10 10 C7.74827097 12.59814888 6.34982295 12.95716454 2.9375 13.375 C0 13 0 13 -1.8125 11.8125 C-3.27538036 9.57968261 -3.64505955 7.62655933 -4 5 C-3.01 5.33 -2.02 5.66 -1 6 C-0.67 5.01 -0.34 4.02 0 3 C0.66 2.67 1.32 2.34 2 2 C1.34 1.34 0.68 0.68 0 0 Z " fill="#232524" transform="translate(168,106)"/>
<path d="M0 0 C0 6.93 0 13.86 0 21 C-5 19 -5 19 -6 18 C-6.15349136 15.52642763 -6.23159885 13.09995481 -6.25 10.625 C-6.270625 9.93921875 -6.29125 9.2534375 -6.3125 8.546875 C-6.33549594 5.59189639 -6.34811183 3.51807232 -4.671875 1.0234375 C-3 0 -3 0 0 0 Z " fill="#1C1D1D" transform="translate(128,83)"/>
<path d="M0 0 C7.10766805 0 11.52874823 3.78372349 17 8 C16.67 9.65 16.34 11.3 16 13 C11.61669388 11.69281227 7.99294509 9.99961987 4.125 7.5625 C3.15820312 6.96566406 2.19140625 6.36882813 1.1953125 5.75390625 C0.47085938 5.17511719 -0.25359375 4.59632812 -1 4 C-1 1 -1 1 0 0 Z " fill="#1E1F1F" transform="translate(152,40)"/>
<path d="M0 0 C0.3515625 2.75390625 0.3515625 2.75390625 0 6 C-2.4140625 8.15234375 -2.4140625 8.15234375 -5.625 9.9375 C-6.66914063 10.54464844 -7.71328125 11.15179688 -8.7890625 11.77734375 C-12.40729075 13.1550876 -14.30683177 12.98151768 -18 12 C-17.70678711 10.13378906 -17.70678711 10.13378906 -17 8 C-14.52445383 6.39834793 -12.18430668 5.05727203 -9.5625 3.75 C-8.86833984 3.38648437 -8.17417969 3.02296875 -7.45898438 2.6484375 C-2.31643562 0 -2.31643562 0 0 0 Z " fill="#1D1E1E" transform="translate(192,93)"/>
<path d="M0 0 C0.99 0 1.98 0 3 0 C3.67305018 1.60149886 4.33822227 3.20631029 5 4.8125 C5.37125 5.70582031 5.7425 6.59914063 6.125 7.51953125 C7 10 7 10 7 13 C3.7 13 0.4 13 -3 13 C-3.66 15.64 -4.32 18.28 -5 21 C-3.68 21.33 -2.36 21.66 -1 22 C-3.64 22 -6.28 22 -9 22 C-8.34 21.67 -7.68 21.34 -7 21 C-6.22669706 19.02769971 -6.22669706 19.02769971 -5.625 16.625 C-4.0319054 10.97155659 -2.05920509 5.49818213 0 0 Z " fill="#454949" transform="translate(389,74)"/>
<path d="M0 0 C3.375 -0.125 3.375 -0.125 7 0 C9 2 9 2 9.3125 5.9375 C9.2339218 8.48435809 9.13665953 9.75704973 7.875 12 C6 13 6 13 0 13 C0 8.71 0 4.42 0 0 Z " fill="#E1F2EF" transform="translate(552,66)"/>
<path d="M0 0 C4 1 4 1 6 3 C6.30078125 6.15234375 6.30078125 6.15234375 6.3125 9.9375 C6.32925781 11.18402344 6.34601563 12.43054688 6.36328125 13.71484375 C6 17 6 17 4.66796875 18.94140625 C3 20 3 20 0 20 C0 13.4 0 6.8 0 0 Z " fill="#1A1B1B" transform="translate(185,56)"/>
<path d="M0 0 C1.0209375 0.37125 1.0209375 0.37125 2.0625 0.75 C2.3925 2.07 2.7225 3.39 3.0625 4.75 C2.23105469 5.15992188 1.39960938 5.56984375 0.54296875 5.9921875 C-1.08705078 6.80042969 -1.08705078 6.80042969 -2.75 7.625 C-4.36841797 8.42550781 -4.36841797 8.42550781 -6.01953125 9.2421875 C-9.01588265 10.72221139 -9.01588265 10.72221139 -11.9375 12.75 C-12.9275 12.75 -13.9175 12.75 -14.9375 12.75 C-15.25 10.5 -15.25 10.5 -14.9375 7.75 C-12.875 5.6875 -12.875 5.6875 -9.9375 3.75 C-9.37160156 3.36328125 -8.80570312 2.9765625 -8.22265625 2.578125 C-5.30091585 0.71127993 -3.50370433 -0.2981876 0 0 Z " fill="#1C1D1D" transform="translate(135.9375,53.25)"/>
<path d="M0 0 C3.375 -0.125 3.375 -0.125 7 0 C9 2 9 2 9.3125 5.9375 C9.2339218 8.48435809 9.13665953 9.75704973 7.875 12 C6 13 6 13 0 13 C0 8.71 0 4.42 0 0 Z " fill="#E0F0EE" transform="translate(427,66)"/>
<path d="M0 0 C4.6182583 0.54792895 7.98149647 2.58964488 11.8125 5.0625 C12.40998047 5.43955078 13.00746094 5.81660156 13.62304688 6.20507812 C15.08636577 7.12989566 16.54379523 8.06402065 18 9 C17.67 9.99 17.34 10.98 17 12 C11.03183907 12.76189288 7.69644303 11.20862661 2.82421875 7.734375 C1 6 1 6 -0.0625 2.625 C-0.041875 1.75875 -0.02125 0.8925 0 0 Z " fill="#1B1C1C" transform="translate(144,107)"/>
<path d="M0 0 C1.32850242 6.40096618 1.32850242 6.40096618 -0.0625 8.9375 C-2.82668977 10.45334601 -4.90228335 10.32954432 -8 10 C-10 8 -10 8 -10.3125 5.0625 C-10 2 -10 2 -8.9375 0.0625 C-5.87530347 -1.61676907 -3.30629059 -0.68621125 0 0 Z " fill="#1B1C1C" transform="translate(161,75)"/>
<path d="M0 0 C3.3 0 6.6 0 10 0 C10 0.66 10 1.32 10 2 C8.68 2 7.36 2 6 2 C6.01047363 2.6705542 6.02094727 3.3411084 6.03173828 4.03198242 C6.07343171 7.08378316 6.09936853 10.13552384 6.125 13.1875 C6.14175781 14.24259766 6.15851563 15.29769531 6.17578125 16.38476562 C6.18222656 17.40634766 6.18867188 18.42792969 6.1953125 19.48046875 C6.20578613 20.41785889 6.21625977 21.35524902 6.22705078 22.32104492 C5.88386711 26.37024318 4.87973968 29.12026032 2 32 C-0.68839385 32.26991906 -3.29141936 32.08737357 -6 32 C-6 31.67 -6 31.34 -6 31 C-4.88625 30.87625 -3.7725 30.7525 -2.625 30.625 C1.03103677 30.3534187 1.03103677 30.3534187 3 28 C3.37207354 25.28384136 3.37207354 25.28384136 3.4140625 22.1171875 C3.47207031 20.36728516 3.47207031 20.36728516 3.53125 18.58203125 C3.5621875 17.35871094 3.593125 16.13539062 3.625 14.875 C3.66367187 13.64394531 3.70234375 12.41289063 3.7421875 11.14453125 C3.8366999 8.09650624 3.92225494 5.04849138 4 2 C2.68 2 1.36 2 0 2 C0 1.34 0 0.68 0 0 Z " fill="#3E4242" transform="translate(275,64)"/>
<path d="M0 0 C2.5625 0.1875 2.5625 0.1875 4.5625 2.1875 C4.00694444 6.74305556 4.00694444 6.74305556 2.5625 8.1875 C0.125 8.375 0.125 8.375 -2.4375 8.1875 C-3.0975 7.5275 -3.7575 6.8675 -4.4375 6.1875 C-3.71780303 0.28598485 -3.71780303 0.28598485 0 0 Z " fill="#D6E7E4" transform="translate(135.4375,104.8125)"/>
<path d="M0 0 C1.875 0.6875 1.875 0.6875 2.875 1.6875 C3.0625 4.125 3.0625 4.125 2.875 6.6875 C2.215 7.3475 1.555 8.0075 0.875 8.6875 C-3.68055556 8.13194444 -3.68055556 8.13194444 -5.125 6.6875 C-5.375 4.25 -5.375 4.25 -5.125 1.6875 C-2.125 -0.3125 -2.125 -0.3125 0 0 Z " fill="#D6E7E4" transform="translate(172.125,108.3125)"/>
<path d="M0 0 C2.34914492 2.34914492 2.73140357 3.95679446 3.625 7.125 C3.88539062 8.03507812 4.14578125 8.94515625 4.4140625 9.8828125 C4.70410156 10.93082031 4.70410156 10.93082031 5 12 C2.03 12 -0.94 12 -4 12 C-3.52309796 10.37433394 -3.04340334 8.74948689 -2.5625 7.125 C-2.29566406 6.22007813 -2.02882812 5.31515625 -1.75390625 4.3828125 C-1 2 -1 2 0 0 Z " fill="#CADBD8" transform="translate(48,74)"/>
<path d="M0 0 C2.33294775 -0.04241723 4.66702567 -0.04092937 7 0 C8 1 8 1 8.25 3.4375 C8.1675 4.283125 8.085 5.12875 8 6 C5 8 5 8 2.3125 7.625 C1.549375 7.41875 0.78625 7.2125 0 7 C0 4.69 0 2.38 0 0 Z " fill="#D4E5E2" transform="translate(174,47)"/>
<path d="M0 0 C3.97915159 -0.02886984 7.95827653 -0.04675406 11.9375 -0.0625 C13.07380859 -0.07087891 14.21011719 -0.07925781 15.38085938 -0.08789062 C16.46044922 -0.09111328 17.54003906 -0.09433594 18.65234375 -0.09765625 C20.15269165 -0.10551147 20.15269165 -0.10551147 21.68334961 -0.11352539 C24 0 24 0 25 1 C25.14115161 3.67058851 25.04247107 6.32432238 25 9 C24.34 9 23.68 9 23 9 C22.34 7.35 21.68 5.7 21 4 C20.34 4 19.68 4 19 4 C19 3.01 19 2.02 19 1 C12.73 1 6.46 1 0 1 C0 0.67 0 0.34 0 0 Z " fill="#4D5251" transform="translate(508,64)"/>
<path d="M0 0 C1 1 1 1 1.125 3.5 C1 6 1 6 0 7 C-3 7.125 -3 7.125 -6 7 C-7 6 -7 6 -7.0625 2.9375 C-7.041875 1.968125 -7.02125 0.99875 -7 0 C-4.31633121 -1.3418344 -2.84719317 -0.73004953 0 0 Z " fill="#D9EAE7" transform="translate(144,44)"/>
<path d="M0 0 C2.5 0.125 2.5 0.125 3.5 1.125 C3.625 4.125 3.625 4.125 3.5 7.125 C2.5 8.125 2.5 8.125 0.0625 8.3125 C-2.5 8.125 -2.5 8.125 -4.5 6.125 C-3.77607362 0.18880368 -3.77607362 0.18880368 0 0 Z " fill="#DBECE9" transform="translate(192.5,79.875)"/>
<path d="M0 0 C1.9375 0.6875 1.9375 0.6875 4 2 C4.8125 4.5625 4.8125 4.5625 5 7 C4 8 4 8 0.4375 8.0625 C-0.696875 8.041875 -1.83125 8.02125 -3 8 C-3.1875 5.125 -3.1875 5.125 -3 2 C-2.01 1.34 -1.02 0.68 0 0 Z " fill="#DBECE9" transform="translate(120,72)"/>
<path d="M0 0 C1.32 0.66 2.64 1.32 4 2 C4.3125 4.75 4.3125 4.75 4 8 C1.8125 10.4375 1.8125 10.4375 -1 12 C-3.6875 12 -3.6875 12 -6 11 C-7.3125 8.9375 -7.3125 8.9375 -8 7 C-5.36 7.33 -2.72 7.66 0 8 C0.79953138 4.71303767 1.09658936 3.28976808 0 0 Z " fill="#1C1D1D" transform="translate(138,104)"/>
<path d="M0 0 C2.3129482 2.3129482 2.49580975 3.47904875 3.125 6.625 C3.29257812 7.44226563 3.46015625 8.25953125 3.6328125 9.1015625 C3.81457031 10.04128906 3.81457031 10.04128906 4 11 C1.69 11 -0.62 11 -3 11 C-2.69078116 9.54096742 -2.37751201 8.08279278 -2.0625 6.625 C-1.88847656 5.81289062 -1.71445312 5.00078125 -1.53515625 4.1640625 C-1 2 -1 2 0 0 Z " fill="#DBEBE9" transform="translate(391,74)"/>
<path d="M0 0 C0.66 0 1.32 0 2 0 C2 3.3 2 6.6 2 10 C-0.97 10 -3.94 10 -7 10 C-7 9.34 -7 8.68 -7 8 C-6.21625 7.566875 -5.4325 7.13375 -4.625 6.6875 C-1.58313785 4.73201719 -1.01018099 3.39788151 0 0 Z " fill="#282A2A" transform="translate(532,86)"/>
<path d="M0 0 C0.33 0.66 0.66 1.32 1 2 C1.66 2 2.32 2 3 2 C3 10.58 3 19.16 3 28 C2.67 28 2.34 28 2 28 C1.67 20.74 1.34 13.48 1 6 C0.01 9.465 0.01 9.465 -1 13 C-1.33 13 -1.66 13 -2 13 C-1.48041715 8.62065881 -0.94324258 4.31196609 0 0 Z " fill="#757D7C" transform="translate(315,67)"/>
<path d="M0 0 C1.32 0.66 2.64 1.32 4 2 C3.01 2.495 3.01 2.495 2 3 C1.34227572 6.02934491 1.34227572 6.02934491 1 9 C2.98 9 4.96 9 7 9 C6.01 9.99 5.02 10.98 4 12 C-0.875 10.125 -0.875 10.125 -2 9 C-2.1875 5.5625 -2.1875 5.5625 -2 2 C-1.34 1.34 -0.68 0.68 0 0 Z " fill="#3A3E3D" transform="translate(116,71)"/>
<path d="M0 0 C0.66 0 1.32 0 2 0 C2 4.29 2 8.58 2 13 C-2 8 -2 8 -3 5 C-2.34 5 -1.68 5 -1 5 C-0.67 3.35 -0.34 1.7 0 0 Z " fill="#1B1C1C" transform="translate(524,74)"/>
<path d="M0 0 C2.93200474 2.85276137 5.64315404 5.65079784 8 9 C6.576875 8.9690625 6.576875 8.9690625 5.125 8.9375 C2.09333717 8.77448174 2.09333717 8.77448174 0 10 C0 6.7 0 3.4 0 0 Z " fill="#1E1F1E" transform="translate(225,87)"/>
<path d="M0 0 C0.99 0.66 1.98 1.32 3 2 C3 2.66 3 3.32 3 4 C1.01432292 3.70703125 -0.97135417 3.4140625 -2.95703125 3.12109375 C-5.2025342 2.86095201 -5.2025342 2.86095201 -8 4 C-8.33 5.65 -8.66 7.3 -9 9 C-9.33 9 -9.66 9 -10 9 C-10.25 6.1875 -10.25 6.1875 -10 3 C-7.08002964 -0.36919657 -4.2911853 -0.45650907 0 0 Z " fill="#393C3C" transform="translate(144,41)"/>
<path d="M0 0 C0.66 0.99 1.32 1.98 2 3 C0.625 6.6875 0.625 6.6875 -1 10 C0.32 10 1.64 10 3 10 C3 10.66 3 11.32 3 12 C0.03 12 -2.94 12 -6 12 C-5.01 11.67 -4.02 11.34 -3 11 C-1.96961044 8.43957934 -1.96961044 8.43957934 -1.3125 5.4375 C-1.06113281 4.42558594 -0.80976562 3.41367188 -0.55078125 2.37109375 C-0.36902344 1.58863281 -0.18726563 0.80617188 0 0 Z " fill="#464B4A" transform="translate(42,85)"/>
<path d="M0 0 C-0.33 0.99 -0.66 1.98 -1 3 C-2.98 3 -4.96 3 -7 3 C-7 4.98 -7 6.96 -7 9 C-7.99 9 -8.98 9 -10 9 C-10.35882213 5.77060081 -10.27258004 4.38790237 -8.375 1.6875 C-5.39542581 -0.42956587 -3.57763189 -0.32523926 0 0 Z " fill="#434746" transform="translate(181,44)"/>
<path d="M0 0 C3.22939919 -0.35882213 4.61209763 -0.27258004 7.3125 1.625 C9.42956587 4.60457419 9.32523926 6.42236811 9 10 C8.01 9.67 7.02 9.34 6 9 C5.690625 8.030625 5.38125 7.06125 5.0625 6.0625 C4.31531979 2.89495953 4.31531979 2.89495953 1.875 1.625 C1.25625 1.41875 0.6375 1.2125 0 1 C0 0.67 0 0.34 0 0 Z " fill="#404443" transform="translate(190,77)"/>
<path d="M0 0 C3.53677664 -0.32152515 5.3962104 -0.4131192 8.375 1.625 C10.4131192 4.6037896 10.32152515 6.46322336 10 10 C7.67527795 7.14693203 6.2491742 4.45925163 5 1 C3.35 1 1.7 1 0 1 C0 0.67 0 0.34 0 0 Z " fill="#3F4342" transform="translate(168,106)"/>
<path d="M0 0 C0 2.64 0 5.28 0 8 C-0.66 8 -1.32 8 -2 8 C-5 3.61538462 -5 3.61538462 -5 1 C-2 0 -2 0 0 0 Z " fill="#161616" transform="translate(244,65)"/>
<path d="M0 0 C3.3 0 6.6 0 10 0 C10 0.66 10 1.32 10 2 C6.33694766 2.74926071 3.57644848 3.2380014 0 2 C0 1.34 0 0.68 0 0 Z " fill="#4E5353" transform="translate(275,64)"/>
<path d="M0 0 C3 1 3 1 4.25 2.875 C5 5 5 5 4 8 C1.10067643 5.60490662 0.49831724 3.68754757 0 0 Z " fill="#323434" transform="translate(164,111)"/>
<path d="M0 0 C2.31 0.66 4.62 1.32 7 2 C7 2.99 7 3.98 7 5 C4.625 4.75 4.625 4.75 2 4 C0.6875 1.9375 0.6875 1.9375 0 0 Z " fill="#2B2D2D" transform="translate(130,111)"/>
<path d="M0 0 C0.66 0 1.32 0 2 0 C1.40138258 2.35171131 0.73075648 4.6859378 0 7 C-0.99 7.495 -0.99 7.495 -2 8 C-2.125 5.125 -2.125 5.125 -2 2 C-1.34 1.34 -0.68 0.68 0 0 Z " fill="#202121" transform="translate(131,104)"/>
<path d="M0 0 C1.32 0.66 2.64 1.32 4 2 C3.01 2.495 3.01 2.495 2 3 C1.34444881 5.52733235 1.34444881 5.52733235 1 8 C0.01 6.68 -0.98 5.36 -2 4 C-1.34 2.68 -0.68 1.36 0 0 Z " fill="#565C5B" transform="translate(116,71)"/>
<path d="M0 0 C0.33 0 0.66 0 1 0 C1.33 2.97 1.66 5.94 2 9 C1.01 8.34 0.02 7.68 -1 7 C-1.25 3.9375 -1.25 3.9375 -1 1 C-0.67 0.67 -0.34 0.34 0 0 Z " fill="#242625" transform="translate(136,44)"/>
</svg>
